# xmcd
#
# Track frame offsets:
#	150
#	14474
#	29802
#	46291
#	58402
#
# Disc length: 958 seconds
#
# Revision: 1
# Processed by: cddbd v1.5.2PL0 Copyright (c) Steve Scherf et al.
# Submitted via: audiograbber 1.83.01
#
DISCID=4503bc05
DTITLE=Dylan Scott - EP
DYEAR=2013
DGENRE=Country
TTITLE0=Makin' This Boy Go Crazy - Dylan Scott
TTITLE1=Catch Me If You Can - Dylan Scott
TTITLE2=Hurtin' In The Morning - Dylan Scott
TTITLE3=Mmm, Mmm, Mmm - Dylan Scott
TTITLE4=Twangin' - Dylan Scott
EXTD=
EXTT0=
EXTT1=
EXTT2=
EXTT3=
EXTT4=
PLAYORDER=
